<?xml version="1.0" standalone="no"?>
<!DOCTYPE svg PUBLIC "-//W3C//DTD SVG 20010904//EN"
 "http://www.w3.org/TR/2001/REC-SVG-20010904/DTD/svg10.dtd">
<svg version="1.0" xmlns="http://www.w3.org/2000/svg"
 width="2020.000000pt" height="2020.000000pt" viewBox="0 0 2020.000000 2020.000000"
 preserveAspectRatio="xMidYMid meet">

<g transform="translate(0.000000,2020.000000) scale(0.100000,-0.100000)"
fill="#000000" stroke="none">
<path d="M9280 19079 c-896 -71 -1786 -385 -2551 -900 -1494 -1006 -2526
-2720 -2829 -4699 -70 -456 -95 -848 -87 -1350 8 -524 48 -918 143 -1405 272
-1393 891 -2635 1806 -3622 358 -386 871 -810 1223 -1012 l89 -51 858 0 858 1
0 177 c0 97 -4 182 -8 188 -4 6 -82 54 -175 108 -526 304 -868 565 -1273 970
-1478 1481 -2227 3772 -1928 5901 89 635 264 1218 528 1760 118 243 192 373
322 573 643 983 1563 1622 2629 1826 260 50 380 59 795 59 299 0 416 -4 525
-17 1085 -131 2023 -689 2728 -1623 302 -401 572 -918 752 -1443 402 -1174
442 -2523 114 -3833 -427 -1702 -1439 -3168 -2768 -4007 -142 -89 -489 -290
-502 -290 -5 0 -9 -69 -9 -165 l0 -165 2473 0 c1632 0 2493 4 2535 10 95 16
172 48 216 92 33 33 38 42 32 71 -8 43 -59 86 -137 117 l-64 25 -1400 5
c-1044 4 -1392 8 -1370 16 17 6 82 53 145 104 706 569 1306 1315 1741 2165
472 919 738 1855 835 2935 21 239 29 833 15 1090 -79 1400 -496 2689 -1221
3775 -1030 1542 -2563 2484 -4259 2615 -156 12 -627 11 -781 -1z m633 -329
c1112 -59 2100 -457 3012 -1216 175 -145 542 -514 696 -699 539 -648 943
-1379 1214 -2198 180 -544 290 -1077 352 -1702 26 -260 25 -1080 0 -1340 -71
-709 -197 -1287 -419 -1909 -479 -1343 -1346 -2493 -2428 -3217 l-125 -84
-365 -3 c-201 -1 -430 -1 -509 0 l-145 3 160 106 c1570 1046 2685 2951 2943
5029 74 591 76 1201 5 1785 -291 2423 -1815 4242 -3842 4584 -264 44 -409 55
-782 55 -373 0 -518 -11 -782 -55 -1068 -180 -2031 -782 -2724 -1701 -648
-861 -1034 -1914 -1144 -3123 -32 -353 -32 -915 0 -1270 175 -1923 1064 -3717
2418 -4881 182 -156 415 -332 589 -444 73 -47 132 -88 133 -92 0 -6 -651 -14
-955 -12 -35 0 -63 14 -180 93 -1093 729 -1962 1877 -2443 3227 -222 622 -348
1200 -419 1909 -25 260 -26 1080 0 1340 110 1114 409 2082 918 2970 277 485
599 906 993 1301 354 353 671 602 1076 846 836 503 1803 748 2753 698z"/>
<path d="M7485 12570 c-246 -16 -441 -70 -475 -132 -14 -25 -13 -29 10 -54 38
-40 98 -62 259 -92 l146 -27 2197 -3 c2403 -3 2262 -6 2385 54 60 29 97 79 88
117 -14 55 -99 108 -213 132 -65 13 -321 15 -2180 13 -1159 0 -2156 -4 -2217
-8z"/>
<path d="M8054 4812 c-62 -22 -102 -53 -142 -112 -98 -143 -49 -354 100 -431
79 -41 216 -41 297 0 169 87 202 343 61 480 -78 75 -206 101 -316 63z"/>
<path d="M6252 3929 c-116 -15 -226 -48 -332 -100 -88 -44 -117 -65 -186 -134
-68 -67 -90 -98 -127 -176 -42 -85 -64 -155 -81 -246 l-5 -33 234 0 235 0 6
28 c14 59 69 145 116 183 92 72 245 106 402 89 204 -23 309 -102 352 -265 20
-75 19 -667 -1 -753 -23 -96 -63 -170 -130 -237 -112 -112 -260 -161 -463
-153 -232 10 -335 92 -335 268 0 81 19 125 79 180 76 70 173 100 452 141 l152
23 0 173 c0 166 -1 173 -20 173 -51 0 -446 -63 -534 -85 -316 -81 -496 -221
-567 -445 -28 -86 -30 -255 -4 -355 57 -225 208 -364 463 -427 70 -18 117 -22
242 -22 305 0 497 69 655 236 l72 77 6 -112 c10 -176 -20 -157 248 -157 l229
0 -10 24 c-5 13 -16 57 -26 98 -15 63 -18 162 -24 733 -6 637 -7 663 -28 739
-37 135 -86 221 -177 312 -67 67 -98 90 -176 128 -156 76 -315 107 -534 105
-66 -1 -148 -5 -183 -10z"/>
<path d="M1492 3919 c-116 -15 -226 -48 -332 -100 -88 -44 -117 -65 -186 -134
-68 -67 -90 -98 -127 -176 -42 -85 -64 -155 -81 -246 l-5 -33 234 0 235 0 6
28 c14 59 69 145 116 183 92 72 245 106 402 89 204 -23 309 -102 352 -265 20
-75 19 -667 -1 -753 -23 -96 -63 -170 -130 -237 -112 -112 -260 -161 -463
-153 -232 10 -335 92 -335 268 0 81 19 125 79 180 76 70 173 100 452 141 l152
23 0 173 c0 166 -1 173 -20 173 -51 0 -446 -63 -534 -85 -316 -81 -496 -221
-567 -445 -28 -86 -30 -255 -4 -355 57 -225 208 -364 463 -427 70 -18 117 -22
242 -22 305 0 497 69 655 236 l72 77 6 -112 c10 -176 -20 -157 248 -157 l229
0 -10 24 c-5 13 -16 57 -26 98 -15 63 -18 162 -24 733 -6 637 -7 663 -28 739
-37 135 -86 221 -177 312 -67 67 -98 90 -176 128 -156 76 -315 107 -534 105
-66 -1 -148 -5 -183 -10z"/>
<path d="M4080 3916 c-193 -37 -343 -124 -435 -252 l-40 -55 -3 136 -3 135
-219 0 -220 0 0 -1045 0 -1045 240 0 239 0 3 673 3 672 23 65 c55 153 142 244
280 292 95 33 271 32 354 0 108 -43 186 -137 225 -268 15 -53 17 -130 21 -746
l3 -688 240 0 239 0 0 688 c-1 812 -5 867 -90 1047 -91 196 -252 329 -462 381
-84 20 -314 27 -398 10z"/>
<path d="M11080 3914 c-317 -57 -581 -255 -721 -539 -88 -179 -122 -334 -122
-545 2 -519 288 -923 741 -1049 236 -65 525 -44 746 54 193 86 371 257 470
451 30 60 66 147 66 160 0 2 -110 4 -243 4 l-244 0 -19 -42 c-43 -97 -171
-193 -310 -234 -78 -23 -237 -23 -323 -1 -135 36 -263 134 -330 251 -74 132
-113 353 -92 526 25 205 75 324 181 431 100 102 200 146 356 156 212 14 405
-78 502 -240 38 -64 81 -179 82 -219 l0 -28 -370 0 c-355 0 -373 -1 -411 -21
-51 -25 -78 -81 -79 -159 0 -67 23 -117 69 -147 l34 -23 620 0 620 0 -6 173
c-5 185 -28 302 -83 439 -130 320 -407 542 -750 602 -106 19 -280 19 -384 0z"/>
<path d="M14530 3923 c-68 -10 -181 -37 -235 -55 -274 -93 -504 -315 -615
-592 -34 -85 -70 -216 -70 -258 l0 -28 238 0 239 0 12 55 c36 161 163 326 305
395 242 120 510 79 691 -104 132 -133 187 -281 187 -501 0 -220 -55 -369 -187
-500 -115 -115 -241 -165 -415 -165 -176 0 -301 50 -416 165 -86 86 -146 199
-172 325 l-17 82 -232 -4 c-127 -2 -235 -6 -239 -10 -11 -12 15 -154 47 -253
118 -370 410 -632 789 -708 210 -42 448 -26 638 43 356 131 606 439 673 830
16 95 16 293 -1 390 -67 403 -340 728 -706 843 -123 39 -245 57 -374 56 -63
-1 -126 -3 -140 -6z"/>
<path d="M18221 3909 c-292 -63 -513 -241 -646 -520 -146 -309 -146 -719 0
-1028 134 -282 357 -460 652 -520 203 -42 437 -17 591 63 l32 17 0 205 c0 113
-3 204 -7 202 -108 -55 -228 -88 -320 -88 -124 1 -286 61 -376 140 -145 128
-224 361 -197 584 20 166 72 279 175 382 112 113 282 174 447 160 309 -26 513
-252 534 -591 8 -127 -14 -1138 -26 -1210 -14 -83 -69 -190 -127 -248 -27 -28
-80 -64 -122 -85 -75 -37 -75 -37 -223 -40 -83 -2 -169 1 -198 7 -130 28 -245
119 -295 234 l-29 67 -239 0 -239 0 7 -42 c11 -66 60 -192 100 -258 107 -176
261 -298 470 -372 121 -43 195 -53 400 -52 172 1 200 3 290 27 121 32 277 108
362 177 176 141 290 363 323 623 6 51 10 469 10 1109 l0 1028 -225 0 -225 0 0
-142 -1 -143 -21 30 c-12 17 -52 60 -90 96 -80 78 -209 148 -333 180 -120 32
-329 35 -454 8z"/>
<path d="M9854 3885 c-173 -38 -311 -125 -411 -260 l-22 -30 0 143 -1 142
-220 0 -220 0 0 -1045 0 -1045 239 0 240 0 3 623 c4 680 3 669 65 797 34 71
123 159 193 192 81 39 206 61 306 56 l84 -4 0 223 0 223 -97 -1 c-54 0 -126
-7 -159 -14z"/>
<path d="M17084 3885 c-173 -38 -311 -125 -411 -260 l-22 -30 0 143 -1 142
-220 0 -220 0 0 -1045 0 -1045 239 0 240 0 3 623 c4 680 3 669 65 797 34 71
123 159 193 192 81 39 206 61 306 56 l84 -4 0 223 0 223 -97 -1 c-54 0 -126
-7 -159 -14z"/>
<path d="M7920 2835 l0 -1045 240 0 240 0 0 1045 0 1045 -240 0 -240 0 0
-1045z"/>
<path d="M12817 2390 c-75 -29 -132 -82 -168 -156 -29 -58 -33 -77 -33 -149
-1 -75 2 -88 34 -151 60 -117 170 -179 310 -172 208 9 342 173 309 379 -27
168 -151 270 -327 269 -51 -1 -93 -7 -125 -20z"/>
</g>
</svg>
