<?xml version="1.0" standalone="no"?>
<!DOCTYPE svg PUBLIC "-//W3C//DTD SVG 20010904//EN"
 "http://www.w3.org/TR/2001/REC-SVG-20010904/DTD/svg10.dtd">
<svg version="1.0" xmlns="http://www.w3.org/2000/svg"
 width="4021.000000pt" height="4021.000000pt" viewBox="0 0 4021.000000 4021.000000"
 preserveAspectRatio="xMidYMid meet">

<g transform="translate(0.000000,4021.000000) scale(0.100000,-0.100000)"
fill="#000000" stroke="none">
<path d="M18620 31989 c-896 -71 -1786 -385 -2551 -900 -1494 -1006 -2526
-2720 -2829 -4699 -70 -456 -95 -848 -87 -1350 8 -524 48 -918 143 -1405 272
-1393 891 -2635 1806 -3622 358 -386 871 -810 1223 -1012 l89 -51 858 0 858 1
0 177 c0 97 -4 182 -8 188 -4 6 -82 54 -175 108 -526 304 -868 565 -1273 970
-1478 1481 -2227 3772 -1928 5901 89 635 264 1218 528 1760 118 243 192 373
322 573 643 983 1563 1622 2629 1826 260 50 380 59 795 59 299 0 416 -4 525
-17 1085 -131 2023 -689 2728 -1623 302 -401 572 -918 752 -1443 402 -1174
442 -2523 114 -3833 -427 -1702 -1439 -3168 -2768 -4007 -142 -89 -489 -290
-502 -290 -5 0 -9 -69 -9 -165 l0 -165 2473 0 c1632 0 2493 4 2535 10 95 16
172 48 216 92 33 33 38 42 32 71 -8 43 -59 86 -137 117 l-64 25 -1400 5
c-1044 4 -1392 8 -1370 16 17 6 82 53 145 104 706 569 1306 1315 1741 2165
472 919 738 1855 835 2935 21 239 29 833 15 1090 -79 1400 -496 2689 -1221
3775 -1030 1542 -2563 2484 -4259 2615 -156 12 -627 11 -781 -1z m633 -329
c1112 -59 2100 -457 3012 -1216 175 -145 542 -514 696 -699 539 -648 943
-1379 1214 -2198 180 -544 290 -1077 352 -1702 26 -260 25 -1080 0 -1340 -71
-709 -197 -1287 -419 -1909 -479 -1343 -1346 -2493 -2428 -3217 l-125 -84
-365 -3 c-201 -1 -430 -1 -509 0 l-145 3 160 106 c1570 1046 2685 2951 2943
5029 74 591 76 1201 5 1785 -291 2423 -1815 4242 -3842 4584 -264 44 -409 55
-782 55 -373 0 -518 -11 -782 -55 -1068 -180 -2031 -782 -2724 -1701 -648
-861 -1034 -1914 -1144 -3123 -32 -353 -32 -915 0 -1270 175 -1923 1064 -3717
2418 -4881 182 -156 415 -332 589 -444 73 -47 132 -88 133 -92 0 -6 -651 -14
-955 -12 -35 0 -63 14 -180 93 -1093 729 -1962 1877 -2443 3227 -222 622 -348
1200 -419 1909 -25 260 -26 1080 0 1340 110 1114 409 2082 918 2970 277 485
599 906 993 1301 354 353 671 602 1076 846 836 503 1803 748 2753 698z"/>
<path d="M16825 25480 c-246 -16 -441 -70 -475 -132 -14 -25 -13 -29 10 -54
38 -40 98 -62 259 -92 l146 -27 2197 -3 c2403 -3 2262 -6 2385 54 60 29 97 79
88 117 -14 55 -99 108 -213 132 -65 13 -321 15 -2180 13 -1159 0 -2156 -4
-2217 -8z"/>
<path d="M6140 11893 c-678 -1814 -1241 -3319 -1251 -3346 l-19 -47 261 2 260
3 387 1057 387 1058 1434 -3 1434 -2 391 -1055 391 -1055 283 -3 283 -2 -7 22
c-4 13 -179 489 -390 1058 -212 569 -766 2064 -1232 3322 l-847 2287 -266 1
-266 0 -1233 -3297z m2094 886 l624 -1684 -1256 -3 c-690 -1 -1257 0 -1259 2
-2 2 277 757 621 1677 727 1949 639 1715 643 1703 2 -6 284 -768 627 -1695z"/>
<path d="M11430 11845 l0 -3345 245 0 245 0 0 2975 c0 2373 3 2975 13 2975 6
0 848 -1338 1869 -2973 l1857 -2972 280 -3 281 -2 0 3345 0 3345 -250 0 -250
0 0 -2891 c0 -1589 -4 -2888 -8 -2885 -5 3 -825 1303 -1823 2890 l-1814 2885
-322 1 -323 0 0 -3345z"/>
<path d="M19746 15148 c-9 -24 -572 -1528 -1251 -3343 l-1234 -3300 256 -3
c151 -1 259 1 262 7 3 5 179 482 390 1060 l385 1051 1432 0 1432 0 24 -62 c13
-35 190 -512 394 -1060 l369 -998 283 0 c265 0 283 1 278 18 -3 9 -561 1513
-1239 3342 l-1234 3325 -265 3 -266 2 -16 -42z m876 -2365 l625 -1688 -1255
-3 c-691 -1 -1257 0 -1260 2 -5 6 1251 3376 1259 3376 3 0 287 -759 631 -1687z"/>
<path d="M23840 11845 l0 -3345 275 0 275 0 0 3345 0 3345 -275 0 -275 0 0
-3345z"/>
<path d="M26090 11845 l0 -3345 265 0 265 0 0 1485 0 1485 752 -2 753 -3 888
-1470 c488 -808 891 -1476 896 -1483 5 -10 75 -12 314 -10 l308 3 -936 1533
c-514 843 -935 1539 -935 1547 0 8 17 18 43 25 117 29 364 117 462 164 481
230 773 601 874 1106 34 173 43 275 43 480 1 575 -154 990 -489 1310 -256 246
-597 400 -1046 474 -256 42 -367 46 -1439 46 l-1018 0 0 -3345z m2260 2861
c476 -79 766 -237 959 -526 160 -240 234 -601 202 -993 -34 -411 -155 -702
-376 -905 -193 -176 -427 -277 -780 -334 -123 -20 -173 -22 -932 -25 l-803 -4
0 1406 0 1406 813 -4 c712 -3 825 -5 917 -21z"/>
<path d="M31660 11845 l0 -3345 1965 0 1965 0 0 230 0 230 -1695 0 -1695 0 0
1375 0 1375 1300 0 1300 0 0 230 0 230 -1300 0 -1300 0 0 1280 0 1280 1690 0
1690 0 0 230 0 230 -1960 0 -1960 0 0 -3345z"/>
</g>
</svg>
